
<svg id="logo" width="869" height="551" viewBox="0 0 869 551" fill="none" xmlns="http://www.w3.org/2000/svg">
            <style>
            #logo{
                position: absolute;
                top: 50%;
                left: 50%;
                transform: translate(-50%, -50%);
            }
            
            #logo > mask > path{
                animation: fill 1s ease forwards 1.6s;
            }
            @keyframes fill{
                from{
                    fill: black;
                }to{
                    fill: white;
                }
            }
            #logo path:nth-child(3){
                stroke-dasharray: 802px;
                stroke-dashoffset: 802px;
                animation: line 1s ease-in forwards;
            }
            #logo > path:nth-child(4){
                stroke-dasharray: 516px;
                stroke-dashoffset: 516px;
                animation: line 1s ease forwards 0.3s;
            }
            #logo > path:nth-child(5){
                stroke-dasharray: 240px;
                stroke-dashoffset: 240px;
                animation: line 1s ease forwards 0.3s;
            }
            #logo > path:nth-child(6){
                stroke-dasharray: 399px;
                stroke-dashoffset: 399px;
                animation: line 1s ease forwards 0.3s;
            }
            #logo > path:nth-child(7){
                stroke-dasharray: 434px;
                stroke-dashoffset: 434px;
                animation: line 1s ease forwards 0.3s;
            }
            #logo > path:nth-child(8){
                stroke-dasharray: 669px;
                stroke-dashoffset: 669px;
                animation: line 1s ease forwards 0.3s;
            }
            #logo > path:nth-child(9){
                stroke-dasharray: 516px;
                stroke-dashoffset: 516px;
                animation: line 1s ease forwards 0.3s;
            }
            #logo > path:nth-child(10){
                stroke-dasharray: 315px;
                stroke-dashoffset: 315px;
                animation: line 1s ease forwards 0.3s;
            }
            #logo > path:nth-child(11){
                stroke-dasharray: 434px;
                stroke-dashoffset: 434px;
                animation: line 1s ease forwards 0.3s;
            }
            #logo > path:nth-child(12){
                stroke-dasharray: 669px;
                stroke-dashoffset: 669px;
                animation: line 1s ease forwards 0.3s;
            }
            #logo > path:nth-child(13){
                stroke-dasharray: 430px;
                stroke-dashoffset: 430px;
                animation: line 1s ease forwards 0.3s;
            }
            #logo > path:nth-child(14){
                stroke-dasharray: 636px;
                stroke-dashoffset: 636px;
                animation: line 1s ease forwards 0.3s;
            }
            #logo > path:nth-child(15){
                stroke-dasharray: 240px;
                stroke-dashoffset: 240px;
                animation: line 1s ease forwards 0.3s;
            }
            #logo > path:nth-child(16){
                stroke-dasharray: 315px;
                stroke-dashoffset: 315px;
                animation: line 1s ease forwards 0.3s;
            }
            #logo > path:nth-child(17){
                stroke-dasharray: 478px;
                stroke-dashoffset: 478px;
                animation: line 1s ease forwards 0.3s;
            }
            #logo > path:nth-child(18){
                stroke-dasharray: 423px;
                stroke-dashoffset: 423px;
                animation: line 1s ease forwards 0.3s;
            }
            #logo > path:nth-child(19){
                stroke-dasharray: 563px;
                stroke-dashoffset: 563px;
                animation: line 1s ease forwards 0.3s;
            }
            #logo > path:nth-child(20){
                stroke-dasharray: 491px;
                stroke-dashoffset: 491px;
                animation: line 1s ease forwards 0.3s;
            }
            #logo > path:nth-child(21){
                stroke-dasharray: 399px;
                stroke-dashoffset: 399px;
                animation: line 1s ease forwards 0.3s;
            }
            #logo > path:nth-child(22){
                stroke-dasharray: 399px;
                stroke-dashoffset: 399px;
                animation: line 1s ease forwards 0.3s;
            }
            #logo > path:nth-child(23){
                stroke-dasharray: 434px;
                stroke-dashoffset: 434px;
                animation: line 1s ease forwards 0.3s;
            }
            #logo > path:nth-child(24){
                stroke-dasharray: 423px;
                stroke-dashoffset: 423px;
                animation: line 1s ease forwards 0.3s;
            }
            #logo > path:nth-child(25){
                stroke-dasharray: 423px;
                stroke-dashoffset: 423px;
                animation: line 1s ease forwards 0.3s;
            }
            #logo > path:nth-child(26){
                stroke-dasharray: 315px;
                stroke-dashoffset: 315px;
                animation: line 1s ease forwards 0.3s;
            }
            @keyframes line{
                to{
                    stroke-dashoffset: 0;
                }
            }
            *{
                margin: 0;
                padding: 0;
                background-color: #0D1117;
            }
            #body{
                width: 100%;
                height: 100%;
            }
            </style>
<mask id="path-1-outside-1" maskUnits="userSpaceOnUse" x="0.312012" y="0.440002" width="868" height="550" fill="black">
<rect fill="white" x="0.312012" y="0.440002" width="868" height="550"/>
<path d="M141.232 11.632L112.144 112H97.456L74.128 31.216L49.936 112L35.392 112.144L7.31201 11.632H21.28L43.168 96.736L67.36 11.632H82.048L105.088 96.448L127.12 11.632H141.232Z"/>
<path d="M227.572 69.52C227.572 72.016 227.428 74.656 227.14 77.44H164.068C164.548 85.216 167.188 91.312 171.988 95.728C176.884 100.048 182.788 102.208 189.7 102.208C195.364 102.208 200.068 100.912 203.812 98.32C207.652 95.632 210.34 92.08 211.876 87.664H225.988C223.876 95.248 219.652 101.44 213.316 106.24C206.98 110.944 199.108 113.296 189.7 113.296C182.212 113.296 175.492 111.616 169.54 108.256C163.684 104.896 159.076 100.144 155.716 94C152.356 87.76 150.676 80.56 150.676 72.4C150.676 64.24 152.308 57.088 155.572 50.944C158.836 44.8 163.396 40.096 169.252 36.832C175.204 33.472 182.02 31.792 189.7 31.792C197.188 31.792 203.812 33.424 209.572 36.688C215.332 39.952 219.748 44.464 222.82 50.224C225.988 55.888 227.572 62.32 227.572 69.52ZM214.036 66.784C214.036 61.792 212.932 57.52 210.724 53.968C208.516 50.32 205.492 47.584 201.652 45.76C197.908 43.84 193.732 42.88 189.124 42.88C182.5 42.88 176.836 44.992 172.132 49.216C167.524 53.44 164.884 59.296 164.212 66.784H214.036Z"/>
<path d="M257.973 5.44V112H244.869V5.44H257.973Z"/>
<path d="M275.411 72.4C275.411 64.24 277.043 57.136 280.307 51.088C283.571 44.944 288.083 40.192 293.843 36.832C299.699 33.472 306.371 31.792 313.859 31.792C323.555 31.792 331.523 34.144 337.763 38.848C344.099 43.552 348.275 50.08 350.291 58.432H336.179C334.835 53.632 332.195 49.84 328.259 47.056C324.419 44.272 319.619 42.88 313.859 42.88C306.371 42.88 300.323 45.472 295.715 50.656C291.107 55.744 288.803 62.992 288.803 72.4C288.803 81.904 291.107 89.248 295.715 94.432C300.323 99.616 306.371 102.208 313.859 102.208C319.619 102.208 324.419 100.864 328.259 98.176C332.099 95.488 334.739 91.648 336.179 86.656H350.291C348.179 94.72 343.955 101.2 337.619 106.096C331.283 110.896 323.363 113.296 313.859 113.296C306.371 113.296 299.699 111.616 293.843 108.256C288.083 104.896 283.571 100.144 280.307 94C277.043 87.856 275.411 80.656 275.411 72.4Z"/>
<path d="M402.191 113.296C394.799 113.296 388.079 111.616 382.031 108.256C376.079 104.896 371.375 100.144 367.919 94C364.559 87.76 362.879 80.56 362.879 72.4C362.879 64.336 364.608 57.232 368.064 51.088C371.616 44.848 376.416 40.096 382.464 36.832C388.512 33.472 395.28 31.792 402.768 31.792C410.256 31.792 417.024 33.472 423.072 36.832C429.12 40.096 433.872 44.8 437.328 50.944C440.88 57.088 442.655 64.24 442.655 72.4C442.655 80.56 440.832 87.76 437.184 94C433.632 100.144 428.783 104.896 422.639 108.256C416.495 111.616 409.679 113.296 402.191 113.296ZM402.191 101.776C406.895 101.776 411.312 100.672 415.44 98.464C419.568 96.256 422.88 92.944 425.376 88.528C427.968 84.112 429.263 78.736 429.263 72.4C429.263 66.064 428.016 60.688 425.52 56.272C423.024 51.856 419.76 48.592 415.728 46.48C411.696 44.272 407.328 43.168 402.624 43.168C397.824 43.168 393.407 44.272 389.375 46.48C385.439 48.592 382.271 51.856 379.871 56.272C377.471 60.688 376.272 66.064 376.272 72.4C376.272 78.832 377.424 84.256 379.728 88.672C382.128 93.088 385.296 96.4 389.232 98.608C393.168 100.72 397.487 101.776 402.191 101.776Z"/>
<path d="M554.781 31.648C560.925 31.648 566.397 32.944 571.197 35.536C575.997 38.032 579.789 41.824 582.573 46.912C585.357 52 586.749 58.192 586.749 65.488V112H573.789V67.36C573.789 59.488 571.821 53.488 567.885 49.36C564.045 45.136 558.813 43.024 552.189 43.024C545.373 43.024 539.949 45.232 535.917 49.648C531.885 53.968 529.869 60.256 529.869 68.512V112H516.909V67.36C516.909 59.488 514.941 53.488 511.005 49.36C507.165 45.136 501.933 43.024 495.309 43.024C488.493 43.024 483.069 45.232 479.037 49.648C475.005 53.968 472.989 60.256 472.989 68.512V112H459.885V33.088H472.989V44.464C475.581 40.336 479.037 37.168 483.357 34.96C487.773 32.752 492.621 31.648 497.901 31.648C504.525 31.648 510.381 33.136 515.469 36.112C520.557 39.088 524.349 43.456 526.845 49.216C529.053 43.648 532.701 39.328 537.789 36.256C542.877 33.184 548.541 31.648 554.781 31.648Z"/>
<path d="M680.244 69.52C680.244 72.016 680.1 74.656 679.812 77.44H616.74C617.22 85.216 619.86 91.312 624.66 95.728C629.556 100.048 635.46 102.208 642.372 102.208C648.036 102.208 652.74 100.912 656.484 98.32C660.324 95.632 663.012 92.08 664.548 87.664H678.66C676.548 95.248 672.324 101.44 665.988 106.24C659.652 110.944 651.78 113.296 642.372 113.296C634.884 113.296 628.164 111.616 622.212 108.256C616.356 104.896 611.748 100.144 608.388 94C605.028 87.76 603.348 80.56 603.348 72.4C603.348 64.24 604.98 57.088 608.244 50.944C611.508 44.8 616.068 40.096 621.924 36.832C627.876 33.472 634.692 31.792 642.372 31.792C649.86 31.792 656.484 33.424 662.244 36.688C668.004 39.952 672.42 44.464 675.492 50.224C678.66 55.888 680.244 62.32 680.244 69.52ZM666.708 66.784C666.708 61.792 665.604 57.52 663.396 53.968C661.188 50.32 658.164 47.584 654.324 45.76C650.58 43.84 646.404 42.88 641.796 42.88C635.172 42.88 629.508 44.992 624.804 49.216C620.196 53.44 617.556 59.296 616.884 66.784H666.708Z"/>
<path d="M751.916 43.888V90.4C751.916 94.24 752.732 96.976 754.364 98.608C755.996 100.144 758.828 100.912 762.86 100.912H772.508V112H760.7C753.404 112 747.932 110.32 744.284 106.96C740.636 103.6 738.812 98.08 738.812 90.4V43.888H728.588V33.088H738.812V13.216H751.916V33.088H772.508V43.888H751.916Z"/>
<path d="M822.801 113.296C815.409 113.296 808.689 111.616 802.641 108.256C796.689 104.896 791.985 100.144 788.529 94C785.169 87.76 783.489 80.56 783.489 72.4C783.489 64.336 785.217 57.232 788.673 51.088C792.225 44.848 797.025 40.096 803.073 36.832C809.121 33.472 815.889 31.792 823.377 31.792C830.865 31.792 837.633 33.472 843.681 36.832C849.729 40.096 854.481 44.8 857.937 50.944C861.489 57.088 863.265 64.24 863.265 72.4C863.265 80.56 861.441 87.76 857.793 94C854.241 100.144 849.393 104.896 843.249 108.256C837.105 111.616 830.289 113.296 822.801 113.296ZM822.801 101.776C827.505 101.776 831.921 100.672 836.049 98.464C840.177 96.256 843.489 92.944 845.985 88.528C848.577 84.112 849.873 78.736 849.873 72.4C849.873 66.064 848.625 60.688 846.129 56.272C843.633 51.856 840.369 48.592 836.337 46.48C832.305 44.272 827.937 43.168 823.233 43.168C818.433 43.168 814.017 44.272 809.985 46.48C806.049 48.592 802.881 51.856 800.481 56.272C798.081 60.688 796.881 66.064 796.881 72.4C796.881 78.832 798.033 84.256 800.337 88.672C802.737 93.088 805.905 96.4 809.841 98.608C813.777 100.72 818.097 101.776 822.801 101.776Z"/>
<path d="M109.984 247.648C116.128 247.648 121.6 248.944 126.4 251.536C131.2 254.032 134.992 257.824 137.776 262.912C140.56 268 141.952 274.192 141.952 281.488V328H128.992V283.36C128.992 275.488 127.024 269.488 123.088 265.36C119.248 261.136 114.016 259.024 107.392 259.024C100.576 259.024 95.152 261.232 91.12 265.648C87.088 269.968 85.072 276.256 85.072 284.512V328H72.112V283.36C72.112 275.488 70.144 269.488 66.208 265.36C62.368 261.136 57.136 259.024 50.512 259.024C43.696 259.024 38.272 261.232 34.24 265.648C30.208 269.968 28.192 276.256 28.192 284.512V328H15.088V249.088H28.192V260.464C30.784 256.336 34.24 253.168 38.56 250.96C42.976 248.752 47.824 247.648 53.104 247.648C59.728 247.648 65.584 249.136 70.672 252.112C75.76 255.088 79.552 259.456 82.048 265.216C84.256 259.648 87.904 255.328 92.992 252.256C98.08 249.184 103.744 247.648 109.984 247.648Z"/>
<path d="M231.415 249.088L183.895 365.152H170.359L185.911 327.136L154.087 249.088H168.631L193.399 313.024L217.879 249.088H231.415Z"/>
<path d="M359.011 256.72C356.227 250.864 352.195 246.352 346.915 243.184C341.635 239.92 335.491 238.288 328.483 238.288C321.475 238.288 315.139 239.92 309.475 243.184C303.907 246.352 299.491 250.96 296.227 257.008C293.059 262.96 291.475 269.872 291.475 277.744C291.475 285.616 293.059 292.528 296.227 298.48C299.491 304.432 303.907 309.04 309.475 312.304C315.139 315.472 321.475 317.056 328.483 317.056C338.275 317.056 346.339 314.128 352.675 308.272C359.011 302.416 362.707 294.496 363.763 284.512H323.731V273.856H377.731V283.936C376.963 292.192 374.371 299.776 369.955 306.688C365.539 313.504 359.731 318.928 352.531 322.96C345.331 326.896 337.315 328.864 328.483 328.864C319.171 328.864 310.675 326.704 302.995 322.384C295.315 317.968 289.219 311.872 284.707 304.096C280.291 296.32 278.083 287.536 278.083 277.744C278.083 267.952 280.291 259.168 284.707 251.392C289.219 243.52 295.315 237.424 302.995 233.104C310.675 228.688 319.171 226.48 328.483 226.48C339.139 226.48 348.547 229.12 356.707 234.4C364.963 239.68 370.963 247.12 374.707 256.72H359.011Z"/>
<path d="M401.825 236.272C399.329 236.272 397.217 235.408 395.489 233.68C393.761 231.952 392.897 229.84 392.897 227.344C392.897 224.848 393.761 222.736 395.489 221.008C397.217 219.28 399.329 218.416 401.825 218.416C404.225 218.416 406.241 219.28 407.873 221.008C409.601 222.736 410.465 224.848 410.465 227.344C410.465 229.84 409.601 231.952 407.873 233.68C406.241 235.408 404.225 236.272 401.825 236.272ZM408.161 249.088V328H395.057V249.088H408.161Z"/>
<path d="M446.478 259.888V306.4C446.478 310.24 447.294 312.976 448.926 314.608C450.558 316.144 453.39 316.912 457.422 316.912H467.07V328H455.262C447.966 328 442.494 326.32 438.846 322.96C435.198 319.6 433.374 314.08 433.374 306.4V259.888H423.15V249.088H433.374V229.216H446.478V249.088H467.07V259.888H446.478Z"/>
<path d="M522.115 247.648C528.067 247.648 533.443 248.944 538.243 251.536C543.043 254.032 546.787 257.824 549.475 262.912C552.259 268 553.651 274.192 553.651 281.488V328H540.691V283.36C540.691 275.488 538.723 269.488 534.787 265.36C530.851 261.136 525.475 259.024 518.659 259.024C511.747 259.024 506.227 261.184 502.099 265.504C498.067 269.824 496.051 276.112 496.051 284.368V328H482.947V221.44H496.051V260.32C498.643 256.288 502.195 253.168 506.707 250.96C511.315 248.752 516.451 247.648 522.115 247.648Z"/>
<path d="M645.041 249.088V328H631.937V316.336C629.441 320.368 625.937 323.536 621.425 325.84C617.009 328.048 612.113 329.152 606.737 329.152C600.593 329.152 595.073 327.904 590.177 325.408C585.281 322.816 581.393 318.976 578.513 313.888C575.729 308.8 574.337 302.608 574.337 295.312V249.088H587.297V293.584C587.297 301.36 589.265 307.36 593.201 311.584C597.137 315.712 602.513 317.776 609.329 317.776C616.337 317.776 621.857 315.616 625.889 311.296C629.921 306.976 631.937 300.688 631.937 292.432V249.088H645.041Z"/>
<path d="M680.27 263.776C682.958 259.072 686.894 255.232 692.078 252.256C697.262 249.28 703.166 247.792 709.79 247.792C716.894 247.792 723.278 249.472 728.942 252.832C734.606 256.192 739.07 260.944 742.334 267.088C745.598 273.136 747.23 280.192 747.23 288.256C747.23 296.224 745.598 303.328 742.334 309.568C739.07 315.808 734.558 320.656 728.798 324.112C723.134 327.568 716.798 329.296 709.79 329.296C702.974 329.296 696.974 327.808 691.79 324.832C686.702 321.856 682.862 318.064 680.27 313.456V328H667.166V221.44H680.27V263.776ZM733.838 288.256C733.838 282.304 732.638 277.12 730.238 272.704C727.838 268.288 724.574 264.928 720.446 262.624C716.414 260.32 711.95 259.168 707.054 259.168C702.254 259.168 697.79 260.368 693.662 262.768C689.63 265.072 686.366 268.48 683.87 272.992C681.47 277.408 680.27 282.544 680.27 288.4C680.27 294.352 681.47 299.584 683.87 304.096C686.366 308.512 689.63 311.92 693.662 314.32C697.79 316.624 702.254 317.776 707.054 317.776C711.95 317.776 716.414 316.624 720.446 314.32C724.574 311.92 727.838 308.512 730.238 304.096C732.638 299.584 733.838 294.304 733.838 288.256Z"/>
<path d="M74.416 521.68H30.64L22.576 544H8.75201L45.04 444.208H60.16L96.304 544H82.48L74.416 521.68ZM70.672 511.024L52.528 460.336L34.384 511.024H70.672Z"/>
<path d="M107.223 504.4C107.223 496.24 108.855 489.136 112.119 483.088C115.383 476.944 119.895 472.192 125.655 468.832C131.511 465.472 138.183 463.792 145.671 463.792C155.367 463.792 163.335 466.144 169.575 470.848C175.911 475.552 180.087 482.08 182.103 490.432H167.991C166.647 485.632 164.007 481.84 160.071 479.056C156.231 476.272 151.431 474.88 145.671 474.88C138.183 474.88 132.135 477.472 127.527 482.656C122.919 487.744 120.615 494.992 120.615 504.4C120.615 513.904 122.919 521.248 127.527 526.432C132.135 531.616 138.183 534.208 145.671 534.208C151.431 534.208 156.231 532.864 160.071 530.176C163.911 527.488 166.551 523.648 167.991 518.656H182.103C179.991 526.72 175.767 533.2 169.431 538.096C163.095 542.896 155.175 545.296 145.671 545.296C138.183 545.296 131.511 543.616 125.655 540.256C119.895 536.896 115.383 532.144 112.119 526C108.855 519.856 107.223 512.656 107.223 504.4Z"/>
<path d="M194.692 504.4C194.692 496.24 196.324 489.136 199.588 483.088C202.852 476.944 207.364 472.192 213.124 468.832C218.98 465.472 225.652 463.792 233.14 463.792C242.836 463.792 250.804 466.144 257.044 470.848C263.38 475.552 267.556 482.08 269.572 490.432H255.46C254.116 485.632 251.476 481.84 247.54 479.056C243.7 476.272 238.9 474.88 233.14 474.88C225.652 474.88 219.604 477.472 214.996 482.656C210.388 487.744 208.084 494.992 208.084 504.4C208.084 513.904 210.388 521.248 214.996 526.432C219.604 531.616 225.652 534.208 233.14 534.208C238.9 534.208 243.7 532.864 247.54 530.176C251.38 527.488 254.02 523.648 255.46 518.656H269.572C267.46 526.72 263.236 533.2 256.9 538.096C250.564 542.896 242.644 545.296 233.14 545.296C225.652 545.296 218.98 543.616 213.124 540.256C207.364 536.896 202.852 532.144 199.588 526C196.324 519.856 194.692 512.656 194.692 504.4Z"/>
<path d="M321.473 545.296C314.081 545.296 307.361 543.616 301.313 540.256C295.361 536.896 290.657 532.144 287.201 526C283.841 519.76 282.161 512.56 282.161 504.4C282.161 496.336 283.889 489.232 287.345 483.088C290.897 476.848 295.697 472.096 301.745 468.832C307.793 465.472 314.561 463.792 322.049 463.792C329.537 463.792 336.305 465.472 342.353 468.832C348.401 472.096 353.153 476.8 356.609 482.944C360.161 489.088 361.937 496.24 361.937 504.4C361.937 512.56 360.113 519.76 356.465 526C352.913 532.144 348.065 536.896 341.921 540.256C335.777 543.616 328.961 545.296 321.473 545.296ZM321.473 533.776C326.177 533.776 330.593 532.672 334.721 530.464C338.849 528.256 342.161 524.944 344.657 520.528C347.249 516.112 348.545 510.736 348.545 504.4C348.545 498.064 347.297 492.688 344.801 488.272C342.305 483.856 339.041 480.592 335.009 478.48C330.977 476.272 326.609 475.168 321.905 475.168C317.105 475.168 312.689 476.272 308.657 478.48C304.721 480.592 301.553 483.856 299.153 488.272C296.753 492.688 295.553 498.064 295.553 504.4C295.553 510.832 296.705 516.256 299.009 520.672C301.409 525.088 304.577 528.4 308.513 530.608C312.449 532.72 316.769 533.776 321.473 533.776Z"/>
<path d="M449.15 465.088V544H436.046V532.336C433.55 536.368 430.046 539.536 425.534 541.84C421.118 544.048 416.222 545.152 410.846 545.152C404.702 545.152 399.182 543.904 394.286 541.408C389.39 538.816 385.502 534.976 382.622 529.888C379.838 524.8 378.446 518.608 378.446 511.312V465.088H391.406V509.584C391.406 517.36 393.374 523.36 397.31 527.584C401.246 531.712 406.622 533.776 413.438 533.776C420.446 533.776 425.966 531.616 429.998 527.296C434.03 522.976 436.046 516.688 436.046 508.432V465.088H449.15Z"/>
<path d="M509.724 463.648C519.324 463.648 527.1 466.576 533.052 472.432C539.004 478.192 541.979 486.544 541.979 497.488V544H529.02V499.36C529.02 491.488 527.051 485.488 523.115 481.36C519.179 477.136 513.803 475.024 506.987 475.024C500.075 475.024 494.555 477.184 490.427 481.504C486.395 485.824 484.38 492.112 484.38 500.368V544H471.276V465.088H484.38V476.32C486.972 472.288 490.476 469.168 494.892 466.96C499.404 464.752 504.348 463.648 509.724 463.648Z"/>
<path d="M579.369 475.888V522.4C579.369 526.24 580.185 528.976 581.817 530.608C583.449 532.144 586.281 532.912 590.313 532.912H599.961V544H588.153C580.857 544 575.385 542.32 571.737 538.96C568.089 535.6 566.265 530.08 566.265 522.4V475.888H556.041V465.088H566.265V445.216H579.369V465.088H599.961V475.888H579.369Z"/>
</mask>
<path d="M141.232 11.632L112.144 112H97.456L74.128 31.216L49.936 112L35.392 112.144L7.31201 11.632H21.28L43.168 96.736L67.36 11.632H82.048L105.088 96.448L127.12 11.632H141.232Z" stroke="white" stroke-width="10" mask="url(#path-1-outside-1)"/>
<path d="M227.572 69.52C227.572 72.016 227.428 74.656 227.14 77.44H164.068C164.548 85.216 167.188 91.312 171.988 95.728C176.884 100.048 182.788 102.208 189.7 102.208C195.364 102.208 200.068 100.912 203.812 98.32C207.652 95.632 210.34 92.08 211.876 87.664H225.988C223.876 95.248 219.652 101.44 213.316 106.24C206.98 110.944 199.108 113.296 189.7 113.296C182.212 113.296 175.492 111.616 169.54 108.256C163.684 104.896 159.076 100.144 155.716 94C152.356 87.76 150.676 80.56 150.676 72.4C150.676 64.24 152.308 57.088 155.572 50.944C158.836 44.8 163.396 40.096 169.252 36.832C175.204 33.472 182.02 31.792 189.7 31.792C197.188 31.792 203.812 33.424 209.572 36.688C215.332 39.952 219.748 44.464 222.82 50.224C225.988 55.888 227.572 62.32 227.572 69.52ZM214.036 66.784C214.036 61.792 212.932 57.52 210.724 53.968C208.516 50.32 205.492 47.584 201.652 45.76C197.908 43.84 193.732 42.88 189.124 42.88C182.5 42.88 176.836 44.992 172.132 49.216C167.524 53.44 164.884 59.296 164.212 66.784H214.036Z" stroke="white" stroke-width="10" mask="url(#path-1-outside-1)"/>
<path d="M257.973 5.44V112H244.869V5.44H257.973Z" stroke="white" stroke-width="10" mask="url(#path-1-outside-1)"/>
<path d="M275.411 72.4C275.411 64.24 277.043 57.136 280.307 51.088C283.571 44.944 288.083 40.192 293.843 36.832C299.699 33.472 306.371 31.792 313.859 31.792C323.555 31.792 331.523 34.144 337.763 38.848C344.099 43.552 348.275 50.08 350.291 58.432H336.179C334.835 53.632 332.195 49.84 328.259 47.056C324.419 44.272 319.619 42.88 313.859 42.88C306.371 42.88 300.323 45.472 295.715 50.656C291.107 55.744 288.803 62.992 288.803 72.4C288.803 81.904 291.107 89.248 295.715 94.432C300.323 99.616 306.371 102.208 313.859 102.208C319.619 102.208 324.419 100.864 328.259 98.176C332.099 95.488 334.739 91.648 336.179 86.656H350.291C348.179 94.72 343.955 101.2 337.619 106.096C331.283 110.896 323.363 113.296 313.859 113.296C306.371 113.296 299.699 111.616 293.843 108.256C288.083 104.896 283.571 100.144 280.307 94C277.043 87.856 275.411 80.656 275.411 72.4Z" stroke="white" stroke-width="10" mask="url(#path-1-outside-1)"/>
<path d="M402.191 113.296C394.799 113.296 388.079 111.616 382.031 108.256C376.079 104.896 371.375 100.144 367.919 94C364.559 87.76 362.879 80.56 362.879 72.4C362.879 64.336 364.608 57.232 368.064 51.088C371.616 44.848 376.416 40.096 382.464 36.832C388.512 33.472 395.28 31.792 402.768 31.792C410.256 31.792 417.024 33.472 423.072 36.832C429.12 40.096 433.872 44.8 437.328 50.944C440.88 57.088 442.655 64.24 442.655 72.4C442.655 80.56 440.832 87.76 437.184 94C433.632 100.144 428.783 104.896 422.639 108.256C416.495 111.616 409.679 113.296 402.191 113.296ZM402.191 101.776C406.895 101.776 411.312 100.672 415.44 98.464C419.568 96.256 422.88 92.944 425.376 88.528C427.968 84.112 429.263 78.736 429.263 72.4C429.263 66.064 428.016 60.688 425.52 56.272C423.024 51.856 419.76 48.592 415.728 46.48C411.696 44.272 407.328 43.168 402.624 43.168C397.824 43.168 393.407 44.272 389.375 46.48C385.439 48.592 382.271 51.856 379.871 56.272C377.471 60.688 376.272 66.064 376.272 72.4C376.272 78.832 377.424 84.256 379.728 88.672C382.128 93.088 385.296 96.4 389.232 98.608C393.168 100.72 397.487 101.776 402.191 101.776Z" stroke="white" stroke-width="10" mask="url(#path-1-outside-1)"/>
<path d="M554.781 31.648C560.925 31.648 566.397 32.944 571.197 35.536C575.997 38.032 579.789 41.824 582.573 46.912C585.357 52 586.749 58.192 586.749 65.488V112H573.789V67.36C573.789 59.488 571.821 53.488 567.885 49.36C564.045 45.136 558.813 43.024 552.189 43.024C545.373 43.024 539.949 45.232 535.917 49.648C531.885 53.968 529.869 60.256 529.869 68.512V112H516.909V67.36C516.909 59.488 514.941 53.488 511.005 49.36C507.165 45.136 501.933 43.024 495.309 43.024C488.493 43.024 483.069 45.232 479.037 49.648C475.005 53.968 472.989 60.256 472.989 68.512V112H459.885V33.088H472.989V44.464C475.581 40.336 479.037 37.168 483.357 34.96C487.773 32.752 492.621 31.648 497.901 31.648C504.525 31.648 510.381 33.136 515.469 36.112C520.557 39.088 524.349 43.456 526.845 49.216C529.053 43.648 532.701 39.328 537.789 36.256C542.877 33.184 548.541 31.648 554.781 31.648Z" stroke="white" stroke-width="10" mask="url(#path-1-outside-1)"/>
<path d="M680.244 69.52C680.244 72.016 680.1 74.656 679.812 77.44H616.74C617.22 85.216 619.86 91.312 624.66 95.728C629.556 100.048 635.46 102.208 642.372 102.208C648.036 102.208 652.74 100.912 656.484 98.32C660.324 95.632 663.012 92.08 664.548 87.664H678.66C676.548 95.248 672.324 101.44 665.988 106.24C659.652 110.944 651.78 113.296 642.372 113.296C634.884 113.296 628.164 111.616 622.212 108.256C616.356 104.896 611.748 100.144 608.388 94C605.028 87.76 603.348 80.56 603.348 72.4C603.348 64.24 604.98 57.088 608.244 50.944C611.508 44.8 616.068 40.096 621.924 36.832C627.876 33.472 634.692 31.792 642.372 31.792C649.86 31.792 656.484 33.424 662.244 36.688C668.004 39.952 672.42 44.464 675.492 50.224C678.66 55.888 680.244 62.32 680.244 69.52ZM666.708 66.784C666.708 61.792 665.604 57.52 663.396 53.968C661.188 50.32 658.164 47.584 654.324 45.76C650.58 43.84 646.404 42.88 641.796 42.88C635.172 42.88 629.508 44.992 624.804 49.216C620.196 53.44 617.556 59.296 616.884 66.784H666.708Z" stroke="white" stroke-width="10" mask="url(#path-1-outside-1)"/>
<path d="M751.916 43.888V90.4C751.916 94.24 752.732 96.976 754.364 98.608C755.996 100.144 758.828 100.912 762.86 100.912H772.508V112H760.7C753.404 112 747.932 110.32 744.284 106.96C740.636 103.6 738.812 98.08 738.812 90.4V43.888H728.588V33.088H738.812V13.216H751.916V33.088H772.508V43.888H751.916Z" stroke="white" stroke-width="10" mask="url(#path-1-outside-1)"/>
<path d="M822.801 113.296C815.409 113.296 808.689 111.616 802.641 108.256C796.689 104.896 791.985 100.144 788.529 94C785.169 87.76 783.489 80.56 783.489 72.4C783.489 64.336 785.217 57.232 788.673 51.088C792.225 44.848 797.025 40.096 803.073 36.832C809.121 33.472 815.889 31.792 823.377 31.792C830.865 31.792 837.633 33.472 843.681 36.832C849.729 40.096 854.481 44.8 857.937 50.944C861.489 57.088 863.265 64.24 863.265 72.4C863.265 80.56 861.441 87.76 857.793 94C854.241 100.144 849.393 104.896 843.249 108.256C837.105 111.616 830.289 113.296 822.801 113.296ZM822.801 101.776C827.505 101.776 831.921 100.672 836.049 98.464C840.177 96.256 843.489 92.944 845.985 88.528C848.577 84.112 849.873 78.736 849.873 72.4C849.873 66.064 848.625 60.688 846.129 56.272C843.633 51.856 840.369 48.592 836.337 46.48C832.305 44.272 827.937 43.168 823.233 43.168C818.433 43.168 814.017 44.272 809.985 46.48C806.049 48.592 802.881 51.856 800.481 56.272C798.081 60.688 796.881 66.064 796.881 72.4C796.881 78.832 798.033 84.256 800.337 88.672C802.737 93.088 805.905 96.4 809.841 98.608C813.777 100.72 818.097 101.776 822.801 101.776Z" stroke="white" stroke-width="10" mask="url(#path-1-outside-1)"/>
<path d="M109.984 247.648C116.128 247.648 121.6 248.944 126.4 251.536C131.2 254.032 134.992 257.824 137.776 262.912C140.56 268 141.952 274.192 141.952 281.488V328H128.992V283.36C128.992 275.488 127.024 269.488 123.088 265.36C119.248 261.136 114.016 259.024 107.392 259.024C100.576 259.024 95.152 261.232 91.12 265.648C87.088 269.968 85.072 276.256 85.072 284.512V328H72.112V283.36C72.112 275.488 70.144 269.488 66.208 265.36C62.368 261.136 57.136 259.024 50.512 259.024C43.696 259.024 38.272 261.232 34.24 265.648C30.208 269.968 28.192 276.256 28.192 284.512V328H15.088V249.088H28.192V260.464C30.784 256.336 34.24 253.168 38.56 250.96C42.976 248.752 47.824 247.648 53.104 247.648C59.728 247.648 65.584 249.136 70.672 252.112C75.76 255.088 79.552 259.456 82.048 265.216C84.256 259.648 87.904 255.328 92.992 252.256C98.08 249.184 103.744 247.648 109.984 247.648Z" stroke="white" stroke-width="10" mask="url(#path-1-outside-1)"/>
<path d="M231.415 249.088L183.895 365.152H170.359L185.911 327.136L154.087 249.088H168.631L193.399 313.024L217.879 249.088H231.415Z" stroke="white" stroke-width="10" mask="url(#path-1-outside-1)"/>
<path d="M359.011 256.72C356.227 250.864 352.195 246.352 346.915 243.184C341.635 239.92 335.491 238.288 328.483 238.288C321.475 238.288 315.139 239.92 309.475 243.184C303.907 246.352 299.491 250.96 296.227 257.008C293.059 262.96 291.475 269.872 291.475 277.744C291.475 285.616 293.059 292.528 296.227 298.48C299.491 304.432 303.907 309.04 309.475 312.304C315.139 315.472 321.475 317.056 328.483 317.056C338.275 317.056 346.339 314.128 352.675 308.272C359.011 302.416 362.707 294.496 363.763 284.512H323.731V273.856H377.731V283.936C376.963 292.192 374.371 299.776 369.955 306.688C365.539 313.504 359.731 318.928 352.531 322.96C345.331 326.896 337.315 328.864 328.483 328.864C319.171 328.864 310.675 326.704 302.995 322.384C295.315 317.968 289.219 311.872 284.707 304.096C280.291 296.32 278.083 287.536 278.083 277.744C278.083 267.952 280.291 259.168 284.707 251.392C289.219 243.52 295.315 237.424 302.995 233.104C310.675 228.688 319.171 226.48 328.483 226.48C339.139 226.48 348.547 229.12 356.707 234.4C364.963 239.68 370.963 247.12 374.707 256.72H359.011Z" stroke="white" stroke-width="10" mask="url(#path-1-outside-1)"/>
<path d="M401.825 236.272C399.329 236.272 397.217 235.408 395.489 233.68C393.761 231.952 392.897 229.84 392.897 227.344C392.897 224.848 393.761 222.736 395.489 221.008C397.217 219.28 399.329 218.416 401.825 218.416C404.225 218.416 406.241 219.28 407.873 221.008C409.601 222.736 410.465 224.848 410.465 227.344C410.465 229.84 409.601 231.952 407.873 233.68C406.241 235.408 404.225 236.272 401.825 236.272ZM408.161 249.088V328H395.057V249.088H408.161Z" stroke="white" stroke-width="10" mask="url(#path-1-outside-1)"/>
<path d="M446.478 259.888V306.4C446.478 310.24 447.294 312.976 448.926 314.608C450.558 316.144 453.39 316.912 457.422 316.912H467.07V328H455.262C447.966 328 442.494 326.32 438.846 322.96C435.198 319.6 433.374 314.08 433.374 306.4V259.888H423.15V249.088H433.374V229.216H446.478V249.088H467.07V259.888H446.478Z" stroke="white" stroke-width="10" mask="url(#path-1-outside-1)"/>
<path d="M522.115 247.648C528.067 247.648 533.443 248.944 538.243 251.536C543.043 254.032 546.787 257.824 549.475 262.912C552.259 268 553.651 274.192 553.651 281.488V328H540.691V283.36C540.691 275.488 538.723 269.488 534.787 265.36C530.851 261.136 525.475 259.024 518.659 259.024C511.747 259.024 506.227 261.184 502.099 265.504C498.067 269.824 496.051 276.112 496.051 284.368V328H482.947V221.44H496.051V260.32C498.643 256.288 502.195 253.168 506.707 250.96C511.315 248.752 516.451 247.648 522.115 247.648Z" stroke="white" stroke-width="10" mask="url(#path-1-outside-1)"/>
<path d="M645.041 249.088V328H631.937V316.336C629.441 320.368 625.937 323.536 621.425 325.84C617.009 328.048 612.113 329.152 606.737 329.152C600.593 329.152 595.073 327.904 590.177 325.408C585.281 322.816 581.393 318.976 578.513 313.888C575.729 308.8 574.337 302.608 574.337 295.312V249.088H587.297V293.584C587.297 301.36 589.265 307.36 593.201 311.584C597.137 315.712 602.513 317.776 609.329 317.776C616.337 317.776 621.857 315.616 625.889 311.296C629.921 306.976 631.937 300.688 631.937 292.432V249.088H645.041Z" stroke="white" stroke-width="10" mask="url(#path-1-outside-1)"/>
<path d="M680.27 263.776C682.958 259.072 686.894 255.232 692.078 252.256C697.262 249.28 703.166 247.792 709.79 247.792C716.894 247.792 723.278 249.472 728.942 252.832C734.606 256.192 739.07 260.944 742.334 267.088C745.598 273.136 747.23 280.192 747.23 288.256C747.23 296.224 745.598 303.328 742.334 309.568C739.07 315.808 734.558 320.656 728.798 324.112C723.134 327.568 716.798 329.296 709.79 329.296C702.974 329.296 696.974 327.808 691.79 324.832C686.702 321.856 682.862 318.064 680.27 313.456V328H667.166V221.44H680.27V263.776ZM733.838 288.256C733.838 282.304 732.638 277.12 730.238 272.704C727.838 268.288 724.574 264.928 720.446 262.624C716.414 260.32 711.95 259.168 707.054 259.168C702.254 259.168 697.79 260.368 693.662 262.768C689.63 265.072 686.366 268.48 683.87 272.992C681.47 277.408 680.27 282.544 680.27 288.4C680.27 294.352 681.47 299.584 683.87 304.096C686.366 308.512 689.63 311.92 693.662 314.32C697.79 316.624 702.254 317.776 707.054 317.776C711.95 317.776 716.414 316.624 720.446 314.32C724.574 311.92 727.838 308.512 730.238 304.096C732.638 299.584 733.838 294.304 733.838 288.256Z" stroke="white" stroke-width="10" mask="url(#path-1-outside-1)"/>
<path d="M74.416 521.68H30.64L22.576 544H8.75201L45.04 444.208H60.16L96.304 544H82.48L74.416 521.68ZM70.672 511.024L52.528 460.336L34.384 511.024H70.672Z" stroke="white" stroke-width="10" mask="url(#path-1-outside-1)"/>
<path d="M107.223 504.4C107.223 496.24 108.855 489.136 112.119 483.088C115.383 476.944 119.895 472.192 125.655 468.832C131.511 465.472 138.183 463.792 145.671 463.792C155.367 463.792 163.335 466.144 169.575 470.848C175.911 475.552 180.087 482.08 182.103 490.432H167.991C166.647 485.632 164.007 481.84 160.071 479.056C156.231 476.272 151.431 474.88 145.671 474.88C138.183 474.88 132.135 477.472 127.527 482.656C122.919 487.744 120.615 494.992 120.615 504.4C120.615 513.904 122.919 521.248 127.527 526.432C132.135 531.616 138.183 534.208 145.671 534.208C151.431 534.208 156.231 532.864 160.071 530.176C163.911 527.488 166.551 523.648 167.991 518.656H182.103C179.991 526.72 175.767 533.2 169.431 538.096C163.095 542.896 155.175 545.296 145.671 545.296C138.183 545.296 131.511 543.616 125.655 540.256C119.895 536.896 115.383 532.144 112.119 526C108.855 519.856 107.223 512.656 107.223 504.4Z" stroke="white" stroke-width="10" mask="url(#path-1-outside-1)"/>
<path d="M194.692 504.4C194.692 496.24 196.324 489.136 199.588 483.088C202.852 476.944 207.364 472.192 213.124 468.832C218.98 465.472 225.652 463.792 233.14 463.792C242.836 463.792 250.804 466.144 257.044 470.848C263.38 475.552 267.556 482.08 269.572 490.432H255.46C254.116 485.632 251.476 481.84 247.54 479.056C243.7 476.272 238.9 474.88 233.14 474.88C225.652 474.88 219.604 477.472 214.996 482.656C210.388 487.744 208.084 494.992 208.084 504.4C208.084 513.904 210.388 521.248 214.996 526.432C219.604 531.616 225.652 534.208 233.14 534.208C238.9 534.208 243.7 532.864 247.54 530.176C251.38 527.488 254.02 523.648 255.46 518.656H269.572C267.46 526.72 263.236 533.2 256.9 538.096C250.564 542.896 242.644 545.296 233.14 545.296C225.652 545.296 218.98 543.616 213.124 540.256C207.364 536.896 202.852 532.144 199.588 526C196.324 519.856 194.692 512.656 194.692 504.4Z" stroke="white" stroke-width="10" mask="url(#path-1-outside-1)"/>
<path d="M321.473 545.296C314.081 545.296 307.361 543.616 301.313 540.256C295.361 536.896 290.657 532.144 287.201 526C283.841 519.76 282.161 512.56 282.161 504.4C282.161 496.336 283.889 489.232 287.345 483.088C290.897 476.848 295.697 472.096 301.745 468.832C307.793 465.472 314.561 463.792 322.049 463.792C329.537 463.792 336.305 465.472 342.353 468.832C348.401 472.096 353.153 476.8 356.609 482.944C360.161 489.088 361.937 496.24 361.937 504.4C361.937 512.56 360.113 519.76 356.465 526C352.913 532.144 348.065 536.896 341.921 540.256C335.777 543.616 328.961 545.296 321.473 545.296ZM321.473 533.776C326.177 533.776 330.593 532.672 334.721 530.464C338.849 528.256 342.161 524.944 344.657 520.528C347.249 516.112 348.545 510.736 348.545 504.4C348.545 498.064 347.297 492.688 344.801 488.272C342.305 483.856 339.041 480.592 335.009 478.48C330.977 476.272 326.609 475.168 321.905 475.168C317.105 475.168 312.689 476.272 308.657 478.48C304.721 480.592 301.553 483.856 299.153 488.272C296.753 492.688 295.553 498.064 295.553 504.4C295.553 510.832 296.705 516.256 299.009 520.672C301.409 525.088 304.577 528.4 308.513 530.608C312.449 532.72 316.769 533.776 321.473 533.776Z" stroke="white" stroke-width="10" mask="url(#path-1-outside-1)"/>
<path d="M449.15 465.088V544H436.046V532.336C433.55 536.368 430.046 539.536 425.534 541.84C421.118 544.048 416.222 545.152 410.846 545.152C404.702 545.152 399.182 543.904 394.286 541.408C389.39 538.816 385.502 534.976 382.622 529.888C379.838 524.8 378.446 518.608 378.446 511.312V465.088H391.406V509.584C391.406 517.36 393.374 523.36 397.31 527.584C401.246 531.712 406.622 533.776 413.438 533.776C420.446 533.776 425.966 531.616 429.998 527.296C434.03 522.976 436.046 516.688 436.046 508.432V465.088H449.15Z" stroke="white" stroke-width="10" mask="url(#path-1-outside-1)"/>
<path d="M509.724 463.648C519.324 463.648 527.1 466.576 533.052 472.432C539.004 478.192 541.979 486.544 541.979 497.488V544H529.02V499.36C529.02 491.488 527.051 485.488 523.115 481.36C519.179 477.136 513.803 475.024 506.987 475.024C500.075 475.024 494.555 477.184 490.427 481.504C486.395 485.824 484.38 492.112 484.38 500.368V544H471.276V465.088H484.38V476.32C486.972 472.288 490.476 469.168 494.892 466.96C499.404 464.752 504.348 463.648 509.724 463.648Z" stroke="white" stroke-width="10" mask="url(#path-1-outside-1)"/>
<path d="M579.369 475.888V522.4C579.369 526.24 580.185 528.976 581.817 530.608C583.449 532.144 586.281 532.912 590.313 532.912H599.961V544H588.153C580.857 544 575.385 542.32 571.737 538.96C568.089 535.6 566.265 530.08 566.265 522.4V475.888H556.041V465.088H566.265V445.216H579.369V465.088H599.961V475.888H579.369Z" stroke="white" stroke-width="10" mask="url(#path-1-outside-1)"/>
</svg>
